<?xml version="1.0" standalone="no"?>
<!DOCTYPE svg PUBLIC "-//W3C//DTD SVG 20010904//EN"
 "http://www.w3.org/TR/2001/REC-SVG-20010904/DTD/svg10.dtd">
<svg version="1.0" xmlns="http://www.w3.org/2000/svg"
 width="1000.000000pt" height="1000.000000pt" viewBox="0 0 1000.000000 1000.000000"
 preserveAspectRatio="xMidYMid meet">
<metadata>
Created by potrace 1.14, written by Peter Selinger 2001-2017
</metadata>
<g transform="translate(0.000000,1000.000000) scale(0.100000,-0.100000)"
fill="#000000" stroke="none">
<path d="M7001 9544 c-45 -19 -77 -58 -85 -103 -3 -20 -6 -569 -6 -1220 0
-1176 0 -1185 21 -1227 14 -31 32 -48 62 -63 41 -20 57 -20 1242 -20 1176 0
1201 0 1240 19 22 11 49 33 60 48 20 27 20 45 23 1212 1 652 0 1208 -3 1236
-7 55 -31 91 -80 117 -27 14 -163 15 -1235 15 -1024 0 -1210 -2 -1239 -14z"/>
<path d="M7004 6604 c-44 -20 -62 -38 -79 -77 -13 -31 -15 -141 -15 -798 0
-852 4 -808 -72 -853 l-39 -23 -1944 -1 c-1913 0 -1945 0 -1982 -19 -21 -11
-47 -35 -58 -54 -20 -33 -20 -53 -21 -939 0 -520 4 -920 9 -940 11 -41 31 -66
72 -88 27 -15 176 -17 1686 -17 l1655 -1 36 -22 c72 -45 72 -40 72 -572 1
-386 4 -480 15 -500 22 -38 62 -69 101 -77 19 -3 571 -6 1226 -6 1165 0 1193
0 1225 20 19 10 44 34 56 53 l23 33 0 2389 c0 2640 5 2428 -63 2479 l-32 24
-921 1 c-738 1 -927 -1 -950 -12z"/>
<path d="M548 4257 c-41 -11 -76 -42 -94 -83 -10 -24 -12 -371 -11 -1835 l2
-1804 22 -31 c46 -64 6 -62 1005 -62 l907 0 42 21 c26 14 50 36 61 57 17 34
18 106 16 1847 l-3 1812 -30 31 c-16 18 -41 37 -55 43 -30 13 -1812 17 -1862
4z"/>
<path d="M2875 2480 c-23 -11 -49 -35 -60 -52 -19 -32 -20 -55 -20 -657 -1
-703 -4 -675 74 -719 l39 -22 1502 0 c1663 0 1544 -5 1593 64 l22 31 3 615 c2
338 0 629 -3 646 -6 36 -54 90 -91 104 -16 6 -594 10 -1522 10 -1476 0 -1498
0 -1537 -20z"/>
</g>
</svg>
